<svg xmlns="http://www.w3.org/2000/svg" width="640" height="1032" viewBox="0 0 640 1032" role="img" aria-labelledby="title desc">
<title id="title">A pergunta permanece</title><desc id="desc">Pergunta, dados e campos antecedem filtros, transformação, agregação, correlação, interpretação e implementação na linguagem disponível.</desc>
<defs><marker id="arrow" markerWidth="10" markerHeight="10" refX="8" refY="5" orient="auto" markerUnits="userSpaceOnUse"><path d="M0 0 L9 5 L0 10Z" fill="#61e0dd"/></marker></defs>
<rect width="640" height="1032" rx="20" fill="#0b1526"/>
<g font-family="Arial, sans-serif">
<text x="32" y="36" font-size="16" fill="#61e0dd" text-anchor="start" font-weight="bold">CAMINHO DAS PEDRAS / BUSCAS E QUERIES</text>
<text x="32" y="80" font-size="30" fill="#eff7ff" text-anchor="start" font-weight="bold">A pergunta permanece</text>
<rect x="56" y="118" width="552" height="100" rx="12" fill="#12243a" stroke="#32536f"/>
<rect x="56" y="132" width="4" height="72" rx="2" fill="#61e0dd"/>
<text x="78" y="154" font-size="25" fill="#61e0dd" text-anchor="start" font-weight="bold">Pergunta</text>
<text x="78" y="186" font-size="22" fill="#bdd1e5" text-anchor="start" font-weight="normal">Qual decisão preciso apoiar?</text>
<path d="M320 224 L320 244" fill="none" stroke="#61e0dd" stroke-width="2.5" marker-end="url(#arrow)"/>
<rect x="56" y="250" width="552" height="100" rx="12" fill="#12243a" stroke="#32536f"/>
<rect x="56" y="264" width="4" height="72" rx="2" fill="#61e0dd"/>
<text x="78" y="286" font-size="25" fill="#61e0dd" text-anchor="start" font-weight="bold">Dados e campos</text>
<text x="78" y="318" font-size="22" fill="#bdd1e5" text-anchor="start" font-weight="normal">Fonte, semântica, tipo e cobertura</text>
<path d="M320 356 L320 376" fill="none" stroke="#61e0dd" stroke-width="2.5" marker-end="url(#arrow)"/>
<rect x="56" y="382" width="552" height="100" rx="12" fill="#12243a" stroke="#32536f"/>
<rect x="56" y="396" width="4" height="72" rx="2" fill="#61e0dd"/>
<text x="78" y="418" font-size="25" fill="#61e0dd" text-anchor="start" font-weight="bold">Filtro e transformação</text>
<text x="78" y="450" font-size="22" fill="#bdd1e5" text-anchor="start" font-weight="normal">População e valores necessários</text>
<path d="M320 488 L320 508" fill="none" stroke="#61e0dd" stroke-width="2.5" marker-end="url(#arrow)"/>
<rect x="56" y="514" width="552" height="100" rx="12" fill="#12243a" stroke="#32536f"/>
<rect x="56" y="528" width="4" height="72" rx="2" fill="#61e0dd"/>
<text x="78" y="550" font-size="25" fill="#61e0dd" text-anchor="start" font-weight="bold">Agregação e correlação</text>
<text x="78" y="582" font-size="22" fill="#bdd1e5" text-anchor="start" font-weight="normal">Métrica, chave e janela explícitas</text>
<path d="M320 620 L320 640" fill="none" stroke="#61e0dd" stroke-width="2.5" marker-end="url(#arrow)"/>
<rect x="56" y="646" width="552" height="100" rx="12" fill="#12243a" stroke="#32536f"/>
<rect x="56" y="660" width="4" height="72" rx="2" fill="#61e0dd"/>
<text x="78" y="682" font-size="25" fill="#61e0dd" text-anchor="start" font-weight="bold">Interpretação</text>
<text x="78" y="714" font-size="22" fill="#bdd1e5" text-anchor="start" font-weight="normal">Fatos, hipóteses e limitações</text>
<path d="M320 752 L320 772" fill="none" stroke="#61e0dd" stroke-width="2.5" marker-end="url(#arrow)"/>
<rect x="56" y="778" width="552" height="100" rx="12" fill="#12243a" stroke="#32536f"/>
<rect x="56" y="792" width="4" height="72" rx="2" fill="#61e0dd"/>
<text x="78" y="814" font-size="25" fill="#61e0dd" text-anchor="start" font-weight="bold">Sintaxe</text>
<text x="78" y="846" font-size="22" fill="#bdd1e5" text-anchor="start" font-weight="normal">Implementar e validar na plataforma</text>
<path d="M56 828 L18 828" fill="none" stroke="#32536f" stroke-width="2.5"/>
<path d="M18 828 L18 300" fill="none" stroke="#32536f" stroke-width="2.5"/>
<path d="M18 300 L50 300" fill="none" stroke="#61e0dd" stroke-width="2.5" marker-end="url(#arrow)"/>
<text x="32" y="1004" font-size="19" fill="#bdd1e5" text-anchor="start" font-weight="normal">A linguagem muda; o significado precisa permanecer.</text>
</g></svg>
